<?xml version="1.0" encoding="UTF-8" standalone="no"?>
<!DOCTYPE svg PUBLIC "-//W3C//DTD SVG 1.1//EN" "http://www.w3.org/Graphics/SVG/1.1/DTD/svg11.dtd">
<!-- 由 Microsoft Visio, SVG Export 生成 counter.svg 页-1 -->
<svg xmlns="http://www.w3.org/2000/svg" xmlns:xlink="http://www.w3.org/1999/xlink" xmlns:ev="http://www.w3.org/2001/xml-events"
		width="8.29549in" height="5.24132in" viewBox="0 0 597.276 377.375" xml:space="preserve" color-interpolation-filters="sRGB"
		class="st17">
	<style type="text/css">
	<![CDATA[
		.st1 {fill:#a5a5a5;stroke:#000000;stroke-dasharray:0.75,1.5;stroke-width:0.75}
		.st2 {fill:#feffff;font-family:Arial;font-size:0.75em}
		.st3 {stroke:#000000;stroke-linecap:round;stroke-linejoin:round;stroke-width:0.75}
		.st4 {fill:#ffffff;stroke:#000000;stroke-width:0.75}
		.st5 {fill:#000000;font-family:Arial;font-size:0.75em}
		.st6 {font-size:1em}
		.st7 {marker-end:url(#mrkr5-31);stroke:#5b9bd5;stroke-linecap:round;stroke-linejoin:round;stroke-width:1}
		.st8 {fill:#5b9bd5;fill-opacity:1;stroke:#5b9bd5;stroke-opacity:1;stroke-width:0.28409090909091}
		.st9 {marker-end:url(#mrkr5-31);marker-start:url(#mrkr5-38);stroke:#5b9bd5;stroke-linecap:round;stroke-linejoin:round;stroke-width:1}
		.st10 {fill:none;stroke:#000000;stroke-width:1}
		.st11 {fill:#000000;font-family:Arial;font-size:0.75em;font-weight:bold}
		.st12 {fill:none;stroke:none;stroke-width:1}
		.st13 {fill:#ffffff;stroke:none;stroke-linecap:butt;stroke-width:7.2}
		.st14 {fill:#4f87bb;font-family:Arial;font-size:0.75em}
		.st15 {fill:none;stroke:none;stroke-width:0.25}
		.st16 {fill:#000000;font-family:黑体;font-size:1.5em;font-weight:bold}
		.st17 {fill:none;fill-rule:evenodd;font-size:12px;overflow:visible;stroke-linecap:square;stroke-miterlimit:3}
	]]>
	</style>

	<defs id="Markers">
		<g id="lend5">
			<path d="M 2 1 L 0 0 L 1.98117 -0.993387 C 1.67173 -0.364515 1.67301 0.372641 1.98465 1.00043 " style="stroke:none"/>
		</g>
		<marker id="mrkr5-31" class="st8" refX="-6.16" orient="auto" markerUnits="strokeWidth" overflow="visible">
			<use xlink:href="#lend5" transform="scale(-3.52,-3.52) "/>
		</marker>
		<marker id="mrkr5-38" class="st8" refX="5.8" orient="auto" markerUnits="strokeWidth" overflow="visible">
			<use xlink:href="#lend5" transform="scale(3.52) "/>
		</marker>
	</defs>
	<g>
		<title>页-1</title>
		<g id="group5-1" transform="translate(397.85,-57.6929)">
			<title>工作表.5</title>
			<g id="shape6-2">
				<title>矩形</title>
				<desc>CNT</desc>
				<path d="M0 377.37 L56.69 377.37 L56.69 349.03 L0 349.03 L0 377.37 Z" class="st1"/>
				<text x="19.1" y="365.9" class="st2">CNT</text>			</g>
			<g id="shape7-5" transform="translate(0,-23.622)">
				<title>工作表.7</title>
				<path d="M0 377.37 L56.69 377.37" class="st3"/>
			</g>
			<g id="shape8-8" transform="translate(384.462,349.028) rotate(90)">
				<title>工作表.8</title>
				<path d="M0 377.37 L28.35 377.37" class="st3"/>
			</g>
		</g>
		<g id="group4-11" transform="translate(397.85,-15.1732)">
			<title>工作表.4</title>
			<g id="shape1-12">
				<title>矩形</title>
				<desc>ACC</desc>
				<path d="M0 377.37 L56.69 377.37 L56.69 349.03 L0 349.03 L0 377.37 Z" class="st1"/>
				<text x="18.85" y="365.9" class="st2">ACC</text>			</g>
			<g id="shape2-15" transform="translate(0,-23.622)">
				<title>工作表.2</title>
				<path d="M0 377.37 L56.69 377.37" class="st3"/>
			</g>
			<g id="shape3-18" transform="translate(384.462,349.028) rotate(90)">
				<title>工作表.3</title>
				<path d="M0 377.37 L28.35 377.37" class="st3"/>
			</g>
		</g>
		<g id="shape9-21" transform="translate(482.89,-15.1732)">
			<title>圆角矩形</title>
			<desc>Access Process Unit</desc>
			<path d="M4.25 377.37 L38.27 377.37 A4.2519 4.2519 -180 0 0 42.52 373.12 L42.52 310.76 A4.2519 4.2519 -180 0 0 38.27
						 306.51 L4.25 306.51 A4.2519 4.2519 -180 0 0 0 310.76 L0 373.12 A4.2519 4.2519 -180 0 0 4.25 377.37 Z"
					class="st4"/>
			<text x="6.76" y="333.84" class="st5">Access <tspan x="5" dy="1.2em" class="st6">Process </tspan><tspan x="13.26"
						dy="1.2em" class="st6">Unit</tspan></text>		</g>
		<g id="shape10-26" transform="translate(482.89,-78.9528)">
			<title>动态连接线</title>
			<path d="M0 384.46 L-22.19 384.46" class="st7"/>
		</g>
		<g id="shape11-32" transform="translate(482.89,-36.4331)">
			<title>动态连接线.11</title>
			<path d="M-5.8 384.46 L-6.16 384.46 L-22.19 384.46" class="st9"/>
		</g>
		<g id="shape23-40" transform="translate(383.677,-1)">
			<title>矩形</title>
			<desc>DEC #N-1</desc>
			<rect x="0" y="278.162" width="155.906" height="99.2126" class="st10"/>
			<text x="57.45" y="287.26" class="st11">DEC #N-1</text>		</g>
		<g id="group24-43" transform="translate(397.85,-213.598)">
			<title>工作表.24</title>
			<g id="shape25-44">
				<title>矩形</title>
				<desc>CNT</desc>
				<path d="M0 377.37 L56.69 377.37 L56.69 349.03 L0 349.03 L0 377.37 Z" class="st1"/>
				<text x="19.1" y="365.9" class="st2">CNT</text>			</g>
			<g id="shape26-47" transform="translate(0,-23.622)">
				<title>工作表.26</title>
				<path d="M0 377.37 L56.69 377.37" class="st3"/>
			</g>
			<g id="shape27-50" transform="translate(384.462,349.028) rotate(90)">
				<title>工作表.27</title>
				<path d="M0 377.37 L28.35 377.37" class="st3"/>
			</g>
		</g>
		<g id="group28-53" transform="translate(397.85,-171.079)">
			<title>工作表.28</title>
			<g id="shape29-54">
				<title>矩形</title>
				<desc>ACC</desc>
				<path d="M0 377.37 L56.69 377.37 L56.69 349.03 L0 349.03 L0 377.37 Z" class="st1"/>
				<text x="18.85" y="365.9" class="st2">ACC</text>			</g>
			<g id="shape30-57" transform="translate(0,-23.622)">
				<title>工作表.30</title>
				<path d="M0 377.37 L56.69 377.37" class="st3"/>
			</g>
			<g id="shape31-60" transform="translate(384.462,349.028) rotate(90)">
				<title>工作表.31</title>
				<path d="M0 377.37 L28.35 377.37" class="st3"/>
			</g>
		</g>
		<g id="shape32-63" transform="translate(482.89,-171.079)">
			<title>圆角矩形.32</title>
			<desc>Access Process Unit</desc>
			<path d="M4.25 377.37 L38.27 377.37 A4.2519 4.2519 -180 0 0 42.52 373.12 L42.52 310.76 A4.2519 4.2519 -180 0 0 38.27
						 306.51 L4.25 306.51 A4.2519 4.2519 -180 0 0 0 310.76 L0 373.12 A4.2519 4.2519 -180 0 0 4.25 377.37 Z"
					class="st4"/>
			<text x="6.76" y="333.84" class="st5">Access <tspan x="5" dy="1.2em" class="st6">Process </tspan><tspan x="13.26"
						dy="1.2em" class="st6">Unit</tspan></text>		</g>
		<g id="shape33-68" transform="translate(482.89,-234.858)">
			<title>动态连接线.33</title>
			<path d="M0 384.46 L-22.19 384.46" class="st7"/>
		</g>
		<g id="shape34-73" transform="translate(482.89,-192.339)">
			<title>动态连接线.34</title>
			<path d="M-5.8 384.46 L-6.16 384.46 L-22.19 384.46" class="st9"/>
		</g>
		<g id="shape35-80" transform="translate(383.677,-156.906)">
			<title>矩形.35</title>
			<desc>DEC #0</desc>
			<rect x="0" y="278.162" width="155.906" height="99.2126" class="st10"/>
			<text x="62.2" y="287.26" class="st11">DEC #0</text>		</g>
		<g id="shape36-83" transform="translate(567.929,-156.906)">
			<title>矩形.36</title>
			<rect x="0" y="278.162" width="28.3465" height="99.2126" class="st12"/>
		</g>
		<g id="shape37-85" transform="translate(567.929,-199.425)">
			<title>动态连接线.37</title>
			<desc>deq</desc>
			<path d="M0 370.29 L-36.36 370.29" class="st7"/>
			<rect x="-28.7679" y="364.889" width="15.0161" height="10.7998" class="st13"/>
			<text x="-28.77" y="372.99" class="st14">deq</text>		</g>
		<g id="shape38-92" transform="translate(567.929,-1)">
			<title>矩形.38</title>
			<rect x="0" y="278.162" width="28.3465" height="99.2126" class="st12"/>
		</g>
		<g id="shape39-94" transform="translate(567.929,-43.5197)">
			<title>动态连接线.39</title>
			<desc>deq</desc>
			<path d="M0 370.29 L-36.36 370.29" class="st7"/>
			<rect x="-28.7679" y="364.889" width="15.0161" height="10.7998" class="st13"/>
			<text x="-28.77" y="372.99" class="st14">deq</text>		</g>
		<g id="shape40-101" transform="translate(817.745,220.469) rotate(90)">
			<title>工作表.40</title>
			<desc>…</desc>
			<rect x="0" y="349.028" width="56.6929" height="28.3465" class="st15"/>
			<text x="19.31" y="369.19" class="st16">…</text>		</g>
		<g id="group41-104" transform="translate(199.425,-57.6929) scale(-1,1)">
			<title>工作表.41</title>
			<g id="shape42-105">
				<title>矩形</title>
				<desc>CNT</desc>
				<path d="M0 377.37 L56.69 377.37 L56.69 349.03 L0 349.03 L0 377.37 Z" class="st1"/>
				<text x="-37.59" y="365.9" transform="scale(-1,1)" class="st2">CNT</text>			</g>
			<g id="shape43-108" transform="translate(0,-23.622)">
				<title>工作表.43</title>
				<path d="M0 377.37 L56.69 377.37" class="st3"/>
			</g>
			<g id="shape44-111" transform="translate(384.462,349.028) rotate(90)">
				<title>工作表.44</title>
				<path d="M0 377.37 L28.35 377.37" class="st3"/>
			</g>
		</g>
		<g id="group45-114" transform="translate(199.425,-15.1732) scale(-1,1)">
			<title>工作表.45</title>
			<g id="shape46-115">
				<title>矩形</title>
				<desc>ACC</desc>
				<path d="M0 377.37 L56.69 377.37 L56.69 349.03 L0 349.03 L0 377.37 Z" class="st1"/>
				<text x="-37.85" y="365.9" transform="scale(-1,1)" class="st2">ACC</text>			</g>
			<g id="shape47-118" transform="translate(0,-23.622)">
				<title>工作表.47</title>
				<path d="M0 377.37 L56.69 377.37" class="st3"/>
			</g>
			<g id="shape48-121" transform="translate(384.462,349.028) rotate(90)">
				<title>工作表.48</title>
				<path d="M0 377.37 L28.35 377.37" class="st3"/>
			</g>
		</g>
		<g id="shape49-124" transform="translate(114.386,-15.1732) scale(-1,1)">
			<title>圆角矩形.49</title>
			<desc>Access Process Unit</desc>
			<path d="M4.25 377.37 L38.27 377.37 A4.2519 4.2519 -180 0 0 42.52 373.12 L42.52 310.76 A4.2519 4.2519 -180 0 0 38.27
						 306.51 L4.25 306.51 A4.2519 4.2519 -180 0 0 0 310.76 L0 373.12 A4.2519 4.2519 -180 0 0 4.25 377.37 Z"
					class="st4"/>
			<text x="-35.76" y="333.84" transform="scale(-1,1)" class="st5">Access <tspan x="-37.52" dy="1.2em" class="st6">Process </tspan><tspan
						x="-29.26" dy="1.2em" class="st6">Unit</tspan></text>		</g>
		<g id="shape50-129" transform="translate(114.386,-78.9528)">
			<title>动态连接线.50</title>
			<path d="M0 384.46 L22.19 384.46" class="st7"/>
		</g>
		<g id="shape51-134" transform="translate(114.386,-36.4331)">
			<title>动态连接线.51</title>
			<path d="M5.8 384.46 L6.16 384.46 L22.19 384.46" class="st9"/>
		</g>
		<g id="shape52-141" transform="translate(213.598,-1) scale(-1,1)">
			<title>矩形.52</title>
			<desc>INC #M-1</desc>
			<rect x="0" y="278.162" width="155.906" height="99.2126" class="st10"/>
			<text x="-97.21" y="287.26" transform="scale(-1,1)" class="st11">INC #M-1</text>		</g>
		<g id="group53-144" transform="translate(199.425,-213.598) scale(-1,1)">
			<title>工作表.53</title>
			<g id="shape54-145">
				<title>矩形</title>
				<desc>CNT</desc>
				<path d="M0 377.37 L56.69 377.37 L56.69 349.03 L0 349.03 L0 377.37 Z" class="st1"/>
				<text x="-37.59" y="365.9" transform="scale(-1,1)" class="st2">CNT</text>			</g>
			<g id="shape55-148" transform="translate(0,-23.622)">
				<title>工作表.55</title>
				<path d="M0 377.37 L56.69 377.37" class="st3"/>
			</g>
			<g id="shape56-151" transform="translate(384.462,349.028) rotate(90)">
				<title>工作表.56</title>
				<path d="M0 377.37 L28.35 377.37" class="st3"/>
			</g>
		</g>
		<g id="group57-154" transform="translate(199.425,-171.079) scale(-1,1)">
			<title>工作表.57</title>
			<g id="shape58-155">
				<title>矩形</title>
				<desc>ACC</desc>
				<path d="M0 377.37 L56.69 377.37 L56.69 349.03 L0 349.03 L0 377.37 Z" class="st1"/>
				<text x="-37.85" y="365.9" transform="scale(-1,1)" class="st2">ACC</text>			</g>
			<g id="shape59-158" transform="translate(0,-23.622)">
				<title>工作表.59</title>
				<path d="M0 377.37 L56.69 377.37" class="st3"/>
			</g>
			<g id="shape60-161" transform="translate(384.462,349.028) rotate(90)">
				<title>工作表.60</title>
				<path d="M0 377.37 L28.35 377.37" class="st3"/>
			</g>
		</g>
		<g id="shape61-164" transform="translate(114.386,-171.079) scale(-1,1)">
			<title>圆角矩形.61</title>
			<desc>Access Process Unit</desc>
			<path d="M4.25 377.37 L38.27 377.37 A4.2519 4.2519 -180 0 0 42.52 373.12 L42.52 310.76 A4.2519 4.2519 -180 0 0 38.27
						 306.51 L4.25 306.51 A4.2519 4.2519 -180 0 0 0 310.76 L0 373.12 A4.2519 4.2519 -180 0 0 4.25 377.37 Z"
					class="st4"/>
			<text x="-35.76" y="333.84" transform="scale(-1,1)" class="st5">Access <tspan x="-37.52" dy="1.2em" class="st6">Process </tspan><tspan
						x="-29.26" dy="1.2em" class="st6">Unit</tspan></text>		</g>
		<g id="shape62-169" transform="translate(114.386,-234.858)">
			<title>动态连接线.62</title>
			<path d="M0 384.46 L22.19 384.46" class="st7"/>
		</g>
		<g id="shape63-174" transform="translate(114.386,-192.339)">
			<title>动态连接线.63</title>
			<path d="M5.8 384.46 L6.16 384.46 L22.19 384.46" class="st9"/>
		</g>
		<g id="shape64-181" transform="translate(213.598,-156.906) scale(-1,1)">
			<title>矩形.64</title>
			<desc>INC #0</desc>
			<rect x="0" y="278.162" width="155.906" height="99.2126" class="st10"/>
			<text x="-91.96" y="287.26" transform="scale(-1,1)" class="st11">INC #0</text>		</g>
		<g id="shape65-184" transform="translate(29.3465,-156.906) scale(-1,1)">
			<title>矩形.65</title>
			<rect x="0" y="278.162" width="28.3465" height="99.2126" class="st12"/>
		</g>
		<g id="shape66-186" transform="translate(29.3465,-199.425)">
			<title>动态连接线.66</title>
			<desc>enq</desc>
			<path d="M0 370.29 L36.36 370.29" class="st7"/>
			<rect x="13.7518" y="364.889" width="15.0161" height="10.7998" class="st13"/>
			<text x="13.75" y="372.99" class="st14">enq</text>		</g>
		<g id="shape67-193" transform="translate(29.3465,-1) scale(-1,1)">
			<title>矩形.67</title>
			<rect x="0" y="278.162" width="28.3465" height="99.2126" class="st12"/>
		</g>
		<g id="shape68-195" transform="translate(29.3465,-43.5197)">
			<title>动态连接线.68</title>
			<desc>enq</desc>
			<path d="M0 370.29 L36.36 370.29" class="st7"/>
			<rect x="13.7518" y="364.889" width="15.0161" height="10.7998" class="st13"/>
			<text x="13.75" y="372.99" class="st14">enq</text>		</g>
		<g id="shape69-202" transform="translate(-220.469,220.469) rotate(-90) scale(-1,1)">
			<title>工作表.69</title>
			<desc>…</desc>
			<rect x="0" y="349.028" width="56.6929" height="28.3465" class="st15"/>
			<text x="-37.38" y="369.19" transform="scale(-1,1)" class="st16">…</text>		</g>
		<g id="shape70-205" transform="translate(341.157,-156.906) scale(-1,1)">
			<title>圆角矩形.70</title>
			<desc>TDM Convergence Process Unit</desc>
			<path d="M8.5 377.37 L76.54 377.37 A8.5038 8.5038 -180 0 0 85.04 368.87 L85.04 286.67 A8.5038 8.5038 -180 0 0 76.54 278.16
						 L8.5 278.16 A8.5038 8.5038 -180 0 0 -0 286.67 L0 368.87 A8.5038 8.5038 -180 0 0 8.5 377.37 Z" class="st4"/>
			<text x="-52.27" y="314.27" transform="scale(-1,1)" class="st5">TDM <tspan x="-69.29" dy="1.2em" class="st6">Convergence </tspan><tspan
						x="-58.78" dy="1.2em" class="st6">Process </tspan><tspan x="-50.52" dy="1.2em" class="st6">Unit</tspan></text>		</g>
		<g id="shape71-211" transform="translate(199.425,-220.685)">
			<title>动态连接线.71</title>
			<path d="M0 370.29 L50.53 370.29" class="st7"/>
		</g>
		<g id="shape72-216" transform="translate(199.425,-71.8661)">
			<title>动态连接线.72</title>
			<path d="M0 377.37 L46.06 377.37 L46.06 263.99 L50.53 263.99" class="st7"/>
		</g>
		<g id="shape73-221" transform="translate(397.85,-220.685)">
			<title>动态连接线.73</title>
			<path d="M0 370.29 L-50.53 370.29" class="st7"/>
		</g>
		<g id="shape74-226" transform="translate(397.85,-71.8661)">
			<title>动态连接线.74</title>
			<path d="M0 377.37 L-46.06 377.37 L-46.06 263.99 L-50.53 263.99" class="st7"/>
		</g>
		<g id="group75-231" transform="translate(185.252,-312.811)">
			<title>工作表.75</title>
			<g id="shape76-232">
				<title>矩形</title>
				<desc>USE CNT #0</desc>
				<path d="M0 377.37 L56.69 377.37 L56.69 349.03 L0 349.03 L0 377.37 Z" class="st1"/>
				<text x="8.6" y="362.88" class="st2">USE CNT <tspan x="23.34" dy="1.2em" class="st6">#</tspan>0</text>			</g>
			<g id="shape77-236" transform="translate(0,-23.622)">
				<title>工作表.77</title>
				<path d="M0 377.37 L56.69 377.37" class="st3"/>
			</g>
			<g id="shape78-239" transform="translate(384.462,349.028) rotate(90)">
				<title>工作表.78</title>
				<path d="M0 377.37 L28.35 377.37" class="st3"/>
			</g>
		</g>
		<g id="group79-242" transform="translate(355.331,-312.811)">
			<title>工作表.79</title>
			<g id="shape80-243">
				<title>矩形</title>
				<desc>USE CNT #U-1</desc>
				<path d="M0 377.37 L56.69 377.37 L56.69 349.03 L0 349.03 L0 377.37 Z" class="st1"/>
				<text x="8.6" y="362.88" class="st2">USE CNT <tspan x="18.59" dy="1.2em" class="st6">#</tspan>U-1</text>			</g>
			<g id="shape81-247" transform="translate(0,-23.622)">
				<title>工作表.81</title>
				<path d="M0 377.37 L56.69 377.37" class="st3"/>
			</g>
			<g id="shape82-250" transform="translate(384.462,349.028) rotate(90)">
				<title>工作表.82</title>
				<path d="M0 377.37 L28.35 377.37" class="st3"/>
			</g>
		</g>
		<g id="shape83-253" transform="translate(270.291,-312.811)">
			<title>工作表.83</title>
			<desc>…</desc>
			<rect x="0" y="349.028" width="56.6929" height="28.3465" class="st15"/>
			<text x="19.31" y="369.19" class="st16">…</text>		</g>
		<g id="shape84-256" transform="translate(270.291,-256.118)">
			<title>动态连接线.84</title>
			<path d="M0 377.37 L0 331.31 L-56.69 331.31 L-56.69 326.84" class="st7"/>
		</g>
		<g id="shape85-261" transform="translate(326.984,-256.118)">
			<title>动态连接线.85</title>
			<path d="M0 377.37 L0 331.31 L56.69 331.31 L56.69 326.84" class="st7"/>
		</g>
		<g id="shape86-266" transform="translate(647.666,262.989) rotate(90)">
			<title>矩形.86</title>
			<rect x="0" y="320.682" width="28.3465" height="56.6929" class="st12"/>
		</g>
		<g id="shape87-268" transform="translate(291.551,-114.386)">
			<title>动态连接线.87</title>
			<desc>Set value</desc>
			<path d="M7.09 377.37 L7.09 341.02" class="st7"/>
			<rect x="-11.6759" y="350.715" width="37.5249" height="10.7998" class="st13"/>
			<text x="-11.68" y="358.82" class="st14">Set value</text>		</g>
		<g id="shape90-275" transform="translate(206.512,-341.157)">
			<title>动态连接线.90</title>
			<desc>cnt</desc>
			<path d="M7.09 377.37 L7.09 355.19" class="st7"/>
			<rect x="1.08368" y="357.802" width="12.0059" height="10.7998" class="st13"/>
			<text x="1.08" y="365.9" class="st14">cnt</text>		</g>
		<g id="shape91-282" transform="translate(376.591,-341.157)">
			<title>动态连接线.91</title>
			<desc>cnt</desc>
			<path d="M7.09 377.37 L7.09 355.19" class="st7"/>
			<rect x="1.08368" y="357.802" width="12.0059" height="10.7998" class="st13"/>
			<text x="1.08" y="365.9" class="st14">cnt</text>		</g>
	</g>
</svg>
